<?xml version="1.0" standalone="no"?>
<!DOCTYPE svg PUBLIC "-//W3C//DTD SVG 20010904//EN"
 "http://www.w3.org/TR/2001/REC-SVG-20010904/DTD/svg10.dtd">
<svg version="1.0"
    xmlns="http://www.w3.org/2000/svg" width="600.000000pt" height="600.000000pt" viewBox="0 0 600.000000 600.000000" preserveAspectRatio="xMidYMid meet">
    <path xmlns="http://www.w3.org/2000/svg" fill="#FCFBFB" opacity="1.000000" stroke="none" d=" M283.954346,46.005150   C295.199677,46.000484 305.981018,45.737778 316.745728,46.049301   C342.508392,46.794872 367.203674,52.921314 391.085419,62.197533   C419.580566,73.265678 444.910675,89.487877 467.630188,110.013161   C504.314911,143.154892 528.544312,183.755356 542.078491,231.110565   C550.018555,258.892426 553.231262,287.196259 551.773010,315.935272   C550.171448,347.496307 542.837280,377.802368 530.042969,406.795746   C516.617981,437.218384 498.128296,464.087311 474.226196,487.143982   C439.511230,520.631165 398.479889,542.159912 351.207001,552.119324   C328.776031,556.845032 306.128815,558.293274 283.487732,556.729675   C231.018921,553.106323 183.987991,535.012451 143.013672,501.567230   C104.714218,470.305450 78.343018,431.014252 62.912193,384.236450   C56.497036,364.789215 52.601364,344.865753 50.864998,324.382629   C47.105198,280.029968 54.558426,237.668381 72.091324,196.978806   C85.762589,165.251114 105.334961,137.488068 130.244156,113.616280   C163.120712,82.108986 201.871399,61.157612 246.342911,51.305099   C258.516541,48.608074 271.091827,47.724148 283.954346,46.005150  M282.249817,532.269043   C301.355377,534.319824 320.405121,533.211243 339.202789,529.843811   C366.478363,524.957642 392.282318,515.564453 415.906342,500.958710   C427.517517,493.779968 438.434570,485.478424 449.852264,477.555542   C393.394836,419.442871 337.787231,362.204956 282.145538,304.931976   C330.063263,255.771576 377.866852,206.728256 425.992615,157.354416   C433.795166,165.601532 441.195190,173.423233 448.379913,181.017303   C407.997528,222.456528 367.834595,263.670532 327.365387,305.198883   C375.750641,354.866821 423.885223,404.277435 472.202515,453.875549   C475.102142,450.058777 477.644073,446.805328 480.089050,443.480591   C513.633667,397.866028 530.166077,347.061066 527.282227,290.177612   C526.113586,267.125488 521.809265,244.766907 514.040283,223.086395   C496.686859,174.658783 466.837646,135.614700 424.113617,107.080261   C379.598663,77.349701 330.462769,64.905899 276.895386,70.828186   C255.699265,73.171577 235.227188,78.227905 215.583557,86.254303   C204.278015,90.873749 193.562439,96.937050 181.413818,102.925957   C183.589478,104.594246 184.647675,105.366196 185.663437,106.190422   C201.980423,119.430550 218.339203,132.620346 234.522217,146.022339   C235.937698,147.194580 236.883240,149.769608 236.885025,151.694153   C236.991684,266.677643 236.976196,381.661194 236.972305,496.644775   C236.972260,498.208252 236.972305,499.771759 236.972305,501.765656   C235.506699,501.044739 234.579742,500.709229 233.782440,500.178833   C217.862885,489.589447 202.040359,478.850922 185.996368,468.454071   C181.672195,465.651917 179.936676,462.574463 179.948502,457.275848   C180.139175,371.788483 180.100266,286.300568 180.115158,200.812790   C180.117676,186.314911 180.171036,171.816742 180.077652,157.319504   C180.066803,155.635223 179.823318,153.298553 178.740677,152.377579   C169.311432,144.356277 159.666077,136.589020 149.674820,128.410583   C143.178299,135.385681 136.436844,141.839844 130.602097,149.029800   C110.011200,174.403244 94.259224,202.374222 84.731010,233.867432   C74.706482,267.001099 71.697014,300.640045 76.143433,334.836212   C78.744942,354.843719 84.004417,374.301392 91.970947,392.939911   C108.949387,432.662750 134.496674,465.644745 169.542511,491.031067   C202.915939,515.205872 240.207779,528.950928 282.249817,532.269043  z"/>
    <!-- <g transform="translate(0.000000,600.000000) scale(0.100000,-0.100000)" fill="#000000" stroke="none">
    </g> -->
</svg>
